<?xml version="1.0" encoding="utf-8"?>
<!-- Generator: Adobe Illustrator 27.0.0, SVG Export Plug-In . SVG Version: 6.00 Build 0)  -->
<svg version="1.1" id="Layer_1" xmlns="http://www.w3.org/2000/svg" xmlns:xlink="http://www.w3.org/1999/xlink" x="0px" y="0px"
	 viewBox="0 0 1122 1122" style="enable-background:new 0 0 1122 1122;" xml:space="preserve">
<style type="text/css">
	.st0{fill:none;}
	.st1{opacity:0.46;}
	.st2{opacity:0.11;fill:#101010;enable-background:new    ;}
	.st3{fill:#111111;}
	.st4{fill:#121212;}
	.st5{fill:#131313;}
	.st6{fill:#131414;}
	.st7{fill:#141415;}
	.st8{fill:#151516;}
	.st9{fill:#161617;}
	.st10{fill:#171718;}
	.st11{fill:#181819;}
	.st12{fill:#18191A;}
	.st13{fill:#19191B;}
	.st14{fill:#1A1A1C;}
	.st15{fill:#1B1B1D;}
	.st16{fill:#1C1C1E;}
	.st17{fill:#1C1D1F;}
	.st18{fill:#1D1E20;}
	.st19{fill:#1E1E21;}
	.st20{fill:#1F1F21;}
	.st21{fill:#202022;}
	.st22{fill:#202123;}
	.st23{fill:#212224;}
	.st24{fill:#222325;}
	.st25{fill:#232426;}
	.st26{fill:#242427;}
	.st27{fill:#252528;}
	.st28{fill:#252629;}
	.st29{fill:#26272A;}
	.st30{fill:#27282B;}
	.st31{fill:#28292C;}
	.st32{fill:#29292D;}
	.st33{fill:#292A2E;}
	.st34{fill:#2A2B2F;}
	.st35{fill:#2B2C30;}
	.st36{fill:#010101;}
	.st37{fill:#020202;}
	.st38{fill:#030303;}
	.st39{fill:#040404;}
	.st40{fill:#040405;}
	.st41{fill:#050506;}
	.st42{fill:#060607;}
	.st43{fill:#070708;}
	.st44{fill:#080809;}
	.st45{fill:#09090A;}
	.st46{fill:#0A0A0B;}
	.st47{fill:#0B0B0C;}
	.st48{fill:#0B0C0D;}
	.st49{fill:#0C0D0E;}
	.st50{fill:#0D0D0F;}
	.st51{fill:#0E0E10;}
	.st52{fill:#0F0F11;}
	.st53{fill:#101012;}
	.st54{fill:#111113;}
	.st55{fill:#121214;}
	.st56{fill:#121315;}
	.st57{fill:#131416;}
	.st58{fill:#141517;}
	.st59{fill:#151618;}
	.st60{fill:#161618;}
	.st61{fill:#171719;}
	.st62{fill:#18181A;}
	.st63{fill:#191A1C;}
	.st64{fill:#1A1B1D;}
	.st65{fill:#1B1C1E;}
	.st66{fill:#1E1F21;}
	.st67{fill:#1F1F22;}
	.st68{fill:#202023;}
	.st69{fill:#202124;}
	.st70{fill:#212225;}
	.st71{fill:#222326;}
	.st72{fill:#232427;}
	.st73{fill:#242528;}
	.st74{fill:#27282C;}
	.st75{fill:#28292D;}
	.st76{fill:#333333;}
	.st77{fill:#323232;}
	.st78{fill:#313131;}
	.st79{fill:#303030;}
	.st80{fill:#2F2F2F;}
	.st81{fill:#2E2E2E;}
	.st82{fill:#2D2D2D;}
	.st83{fill:#2C2C2C;}
	.st84{fill:#2B2B2B;}
	.st85{fill:#2A2A2A;}
	.st86{fill:#292929;}
	.st87{fill:#282828;}
	.st88{fill:#272727;}
	.st89{fill:#262626;}
	.st90{fill:#252525;}
	.st91{fill:#242424;}
	.st92{fill:#232323;}
	.st93{fill:#222222;}
	.st94{fill:#212121;}
	.st95{fill:#202020;}
	.st96{fill:#1F1F1F;}
	.st97{fill:#1E1E1E;}
	.st98{fill:#1D1D1D;}
	.st99{fill:#1C1C1C;}
	.st100{fill:#1B1B1B;}
	.st101{fill:#1A1A1A;}
	.st102{fill:#191919;}
	.st103{fill:#181818;}
	.st104{fill:#171717;}
	.st105{fill:#161616;}
	.st106{fill:#151515;}
	.st107{fill:#141414;}
	.st108{fill:#101010;}
	.st109{fill:#0F0F0F;}
	.st110{fill:#0E0E0E;}
	.st111{fill:#0D0D0D;}
	.st112{fill:#0C0C0C;}
	.st113{fill:#0B0B0B;}
	.st114{fill:#0A0A0A;}
	.st115{fill:#090909;}
	.st116{fill:#080808;}
	.st117{fill:#070707;}
	.st118{fill:#060606;}
	.st119{fill:#050505;}
	.st120{fill:#EDEDED;}
	.st121{fill:#C6C6C6;}
</style>
<g id="BG">
	<rect y="-0.1" class="st0" width="1122" height="1122"/>
</g>
<g id="Shadow">
	<g id="XMLID_3615_" class="st1">
	</g>
</g>
<g id="Object">
	<g>
		<g>
			<path id="XMLID_3600_" class="st2" d="M698,877.9l-26.8-4.8H450.8l-26.8,4.8c-0.8,0.2-1.4,0.9-1.4,1.7v5.3c0,0.7,0.6,1.3,1.3,1.3
				h274.4c0.7,0,1.3-0.6,1.3-1.3v-5.3C699.4,878.8,698.8,878,698,877.9z"/>
			<g id="XMLID_3592_">
				<polygon id="XMLID_3599_" class="st3" points="691.2,876.7 671.2,873.1 450.8,873.1 430.8,876.7 				"/>
				<path class="st4" d="M449.9,873.3l-6,1.1l-13.3,2.5h1.8h259l-13.3-2.5l-6-1.1h-2C670.1,873.3,450,873.3,449.9,873.3z"/>
				<path class="st5" d="M449.1,873.4l-5.9,1.1l-12.9,2.6c0,0,1.7,0.1,1.8,0.1c0,0,259.5,0,259.6-0.1l-12.9-2.6c0,0-5.8-1.1-5.9-1.1
					h-2C670.9,873.4,449.2,873.4,449.1,873.4z"/>
				<path class="st6" d="M448.2,873.6c-0.1,0-5.7,1.1-5.7,1.2l-12.5,2.7c0,0.1,1.7,0.1,1.8,0.1c0,0,260,0,260.1-0.1l-12.5-2.7
					c0-0.1-5.7-1.1-5.7-1.2h-2C671.7,873.5,448.5,873.5,448.2,873.6z"/>
				<path class="st7" d="M447.4,873.7c-0.1,0-5.6,1.1-5.6,1.2l-12,2.8c0,0.1,1.7,0.2,1.8,0.2c0,0,260.5,0,260.6-0.2l-12-2.8
					c0-0.1-5.5-1.2-5.6-1.2h-2C672.6,873.7,447.7,873.7,447.4,873.7z"/>
				<path class="st8" d="M446.6,873.9c-0.1,0-5.4,1.1-5.4,1.2l-11.6,2.9c0,0.1,1.6,0.2,1.7,0.2c0,0,261,0,261.2-0.2l-11.6-2.9
					c0-0.1-5.3-1.2-5.4-1.2l-2-0.1C673.4,873.8,447,873.8,446.6,873.9z"/>
				<path class="st9" d="M445.7,874c-0.1,0-5.3,1.1-5.3,1.2l-11.2,3c0,0.1,1.6,0.2,1.7,0.2c0,0,261.5,0,261.7-0.2l-11.2-3
					c0-0.2-5.1-1.2-5.3-1.2l-2.1-0.1C674.2,873.9,446.2,873.9,445.7,874z"/>
				<path class="st10" d="M444.9,874.2c-0.2,0-5.1,1-5.1,1.2l-10.7,3.1c0,0.2,1.5,0.3,1.7,0.3c0,0,262,0,262.2-0.3l-10.7-3.1
					c0-0.2-5-1.2-5.1-1.2l-2.1-0.1C675,874.1,445.4,874.1,444.9,874.2z"/>
				<path class="st11" d="M444.1,874.3c-0.2,0-5,1-5,1.2l-10.3,3.2c0,0.2,1.5,0.3,1.7,0.3c0,0,262.5,0,262.8-0.3l-10.3-3.2
					c0-0.2-4.8-1.2-5-1.2l-2.1-0.1C675.8,874.2,444.7,874.2,444.1,874.3z"/>
				<path class="st12" d="M443.2,874.5c-0.2,0-4.8,1-4.8,1.3l-9.9,3.3c0,0.2,1.5,0.4,1.7,0.4c0,0,263,0,263.3-0.4l-9.9-3.3
					c0-0.2-4.6-1.2-4.8-1.3l-2.1-0.1C676.7,874.3,443.9,874.3,443.2,874.5z"/>
				<path class="st13" d="M442.4,874.6c-0.3,0-4.7,1-4.7,1.3l-9.5,3.4c0,0.2,1.4,0.4,1.6,0.4c0,0,263.5,0,263.8-0.4l-9.5-3.4
					c0-0.3-4.4-1.2-4.7-1.3l-2.1-0.1C677.5,874.5,443.2,874.5,442.4,874.6z"/>
				<path class="st14" d="M441.5,874.8c-0.3,0-4.5,1-4.5,1.3l-9,3.5c0,0.2,1.4,0.4,1.6,0.4c0,0,264,0,264.4-0.4l-9-3.5
					c0-0.3-4.3-1.3-4.5-1.3l-2.1-0.2C678.3,874.6,442.4,874.6,441.5,874.8z"/>
				<path class="st15" d="M440.7,874.9c-0.3,0.1-4.4,1-4.4,1.3l-8.6,3.5c0,0.3,1.4,0.5,1.6,0.5c0,0,264.5,0,264.9-0.5l-8.6-3.5
					c0-0.3-4.1-1.3-4.4-1.3l-2.2-0.2C679.1,874.8,441.6,874.8,440.7,874.9z"/>
				<path class="st16" d="M439.9,875.1c-0.3,0.1-4.2,1-4.2,1.3l-8.2,3.6c0,0.3,1.3,0.5,1.6,0.5c0,0,264.9,0,265.5-0.5l-8.2-3.6
					c0-0.3-3.9-1.3-4.2-1.3l-2.2-0.2C680,874.9,440.9,874.9,439.9,875.1z"/>
				<path class="st17" d="M439,875.2c-0.4,0.1-4.1,1-4.1,1.4l-7.7,3.7c0,0.3,1.3,0.5,1.6,0.5c0,0,265.4,0,266-0.5l-7.7-3.7
					c0-0.4-3.7-1.3-4.1-1.4l-2.2-0.2C680.8,875,440.1,875,439,875.2z"/>
				<path class="st18" d="M438.2,875.4c-0.4,0.1-4,1-4,1.4l-7.3,3.8c0,0.3,1.2,0.6,1.6,0.6c0,0,265.9,0,266.5-0.6l-7.3-3.8
					c0-0.4-3.6-1.3-4-1.4l-2.2-0.2C681.6,875.2,439.4,875.2,438.2,875.4z"/>
				<path class="st19" d="M437.4,875.5c-0.4,0.1-3.8,1-3.8,1.4l-6.9,3.9c0,0.3,1.2,0.6,1.5,0.6c0,0,266.4,0,267.1-0.6l-6.9-3.9
					c0-0.4-3.4-1.3-3.8-1.4l-2.2-0.2C682.4,875.3,438.6,875.3,437.4,875.5z"/>
				<path class="st20" d="M436.5,875.7c-0.4,0.1-3.6,1-3.6,1.4l-6.4,4c0,0.4,1.1,0.7,1.5,0.7c0,0,266.9,0,267.6-0.7l-6.4-4
					c0-0.4-3.2-1.3-3.7-1.4l-2.2-0.2C683.2,875.4,437.8,875.4,436.5,875.7z"/>
				<path class="st21" d="M435.7,875.8c-0.5,0.1-3.5,1-3.5,1.4l-6,4.1c0,0.4,1.1,0.7,1.5,0.7c0,0,267.4,0,268.1-0.7l-6-4.1
					c0-0.5-3-1.4-3.5-1.4l-2.2-0.2C684.1,875.6,437.1,875.6,435.7,875.8z"/>
				<path class="st22" d="M434.9,876c-0.5,0.1-3.4,1-3.4,1.5l-5.6,4.2c0,0.4,1.1,0.8,1.5,0.8c0,0,267.9,0,268.7-0.8l-5.6-4.2
					c0-0.5-2.9-1.4-3.3-1.5l-2.3-0.3C684.9,875.7,436.3,875.7,434.9,876z"/>
				<path class="st23" d="M434,876.1c-0.5,0.1-3.2,1-3.2,1.5l-5.1,4.3c0,0.4,1,0.8,1.5,0.8c0,0,268.4,0,269.2-0.8l-5.2-4.3
					c0-0.5-2.7-1.4-3.2-1.5l-2.3-0.3C685.7,875.8,435.6,875.8,434,876.1z"/>
				<path class="st24" d="M433.2,876.3c-0.5,0.1-3.1,1-3.1,1.5l-4.7,4.3c0,0.5,1,0.8,1.5,0.8c0,0,268.9,0,269.7-0.8l-4.7-4.3
					c0-0.5-2.5-1.4-3.1-1.5l-2.3-0.3C686.5,876,434.8,876,433.2,876.3z"/>
				<path class="st25" d="M432.4,876.4c-0.6,0.1-2.9,0.9-2.9,1.5l-4.3,4.4c0,0.5,1,0.9,1.4,0.9c0,0,269.4,0,270.3-0.9l-4.3-4.4
					c0-0.6-2.3-1.4-2.9-1.5l-2.3-0.3C687.3,876.1,434,876.1,432.4,876.4z"/>
				<path class="st26" d="M431.5,876.6c-0.6,0.1-2.8,0.9-2.8,1.5l-3.9,4.5c0,0.5,0.9,0.9,1.4,0.9c0,0,269.9,0,270.8-0.9l-3.9-4.5
					c0-0.6-2.2-1.4-2.8-1.5l-2.3-0.3C688.2,876.2,433.3,876.2,431.5,876.6z"/>
				<path class="st27" d="M430.7,876.7c-0.6,0.1-2.6,0.9-2.6,1.5l-3.4,4.6c0,0.5,0.9,1,1.4,1c0,0,270.4,0,271.3-1l-3.4-4.6
					c0-0.6-2-1.4-2.6-1.5l-2.3-0.3C689,876.4,432.5,876.4,430.7,876.7z"/>
				<path class="st28" d="M429.8,876.9c-0.6,0.1-2.5,0.9-2.5,1.6l-3,4.7c0,0.5,0.8,1,1.4,1c0,0,270.9,0,271.9-1l-3-4.7
					c0-0.7-1.8-1.5-2.5-1.6l-2.3-0.3C689.8,876.5,431.8,876.5,429.8,876.9z"/>
				<path class="st29" d="M429,877c-0.7,0.1-2.3,0.9-2.3,1.6l-2.6,4.8c0,0.6,0.8,1,1.4,1c0,0,271.4,0,272.4-1l-2.6-4.8
					c0-0.7-1.7-1.5-2.3-1.6l-2.4-0.4C690.6,876.7,431,876.7,429,877z"/>
				<path class="st30" d="M428.2,877.2c-0.7,0.1-2.2,0.9-2.2,1.6l-2.1,4.9c0,0.6,0.8,1.1,1.4,1.1c0,0,271.9,0,272.9-1.1l-2.2-4.9
					c0-0.7-1.5-1.5-2.2-1.6l-2.4-0.4C691.5,876.8,430.2,876.8,428.2,877.2z"/>
				<path class="st31" d="M427.3,877.3c-0.7,0.1-2,0.9-2,1.6l-1.7,5c0,0.6,0.7,1.1,1.3,1.1c0,0,272.4,0,273.5-1.1l-1.7-5
					c0-0.7-1.3-1.5-2-1.6l-2.4-0.4C692.3,876.9,429.5,876.9,427.3,877.3z"/>
				<path class="st32" d="M426.5,877.5c-0.8,0.1-1.9,0.9-1.9,1.6l-1.3,5.1c0,0.6,0.7,1.1,1.3,1.1c0,0,272.9,0,274-1.1l-1.3-5.1
					c0-0.8-1.1-1.5-1.9-1.6l-2.4-0.4C693.1,877.1,428.7,877.1,426.5,877.5z"/>
				<path class="st33" d="M425.7,877.6c-0.8,0.1-1.7,0.9-1.7,1.7l-0.9,5.2c0,0.7,0.6,1.2,1.3,1.2c0,0,273.4,0,274.5-1.2l-0.9-5.2
					c0-0.8-1-1.5-1.7-1.7l-2.4-0.4C693.9,877.2,428,877.2,425.7,877.6z"/>
				<path class="st34" d="M424.8,877.8c-0.8,0.1-1.6,0.9-1.6,1.7l-0.4,5.3c0,0.7,0.6,1.2,1.3,1.2c0,0,273.8,0,275.1-1.2l-0.4-5.3
					c0-0.8-0.8-1.5-1.6-1.7l-2.4-0.4C694.7,877.3,427.2,877.3,424.8,877.8z"/>
				<path id="XMLID_3598_" class="st35" d="M698,877.9l-2.5-0.4h-269l-2.5,0.4c-0.8,0.2-1.4,0.9-1.4,1.7v5.3c0,0.7,0.6,1.3,1.3,1.3
					h274.4c0.7,0,1.3-0.6,1.3-1.3v-5.3C699.4,878.8,698.8,878,698,877.9z"/>
			</g>
			<polygon id="XMLID_3591_" class="st35" points="467.7,784.5 655.1,784.5 671.2,873.1 450.8,873.1 			"/>
			<g id="XMLID_3583_">
				<polygon id="XMLID_3590_" points="658.3,813.3 655.1,795.6 467.7,795.6 464.3,813.5 				"/>
				<polygon class="st36" points="658.4,813.5 655.1,795.8 467.7,795.8 464.3,813.7 				"/>
				<polygon class="st37" points="658.4,813.8 655.2,796 467.7,796 464.2,814 				"/>
				<polygon class="st38" points="658.5,814.1 655.2,796.2 467.6,796.2 464.2,814.3 				"/>
				<polygon class="st39" points="658.5,814.3 655.2,796.4 467.6,796.5 464.1,814.6 				"/>
				<polygon class="st40" points="658.5,814.6 655.3,796.6 467.5,796.7 464,814.9 				"/>
				<polygon class="st41" points="658.6,814.8 655.3,796.8 467.5,796.9 464,815.2 				"/>
				<polygon class="st42" points="658.6,815.1 655.3,797 467.4,797.1 464,815.5 				"/>
				<polygon class="st43" points="658.7,815.3 655.4,797.2 467.4,797.3 463.9,815.7 				"/>
				<polygon class="st44" points="658.7,815.6 655.4,797.5 467.4,797.6 463.8,816 				"/>
				<polygon class="st45" points="658.8,815.9 655.5,797.7 467.3,797.8 463.8,816.3 				"/>
				<polygon class="st46" points="658.8,816.1 655.5,797.9 467.3,798 463.7,816.6 				"/>
				<polygon class="st47" points="658.9,816.4 655.5,798.1 467.2,798.2 463.7,816.9 				"/>
				<polygon class="st48" points="658.9,816.6 655.6,798.3 467.2,798.5 463.6,817.2 				"/>
				<polygon class="st49" points="659,816.9 655.6,798.5 467.1,798.7 463.6,817.5 				"/>
				<polygon class="st50" points="659,817.2 655.7,798.7 467.1,798.9 463.5,817.7 				"/>
				<polygon class="st51" points="659.1,817.4 655.7,798.9 467.1,799.1 463.5,818 				"/>
				<polygon class="st52" points="659.1,817.7 655.7,799.1 467,799.3 463.4,818.3 				"/>
				<polygon class="st53" points="659.2,817.9 655.8,799.3 467,799.6 463.4,818.6 				"/>
				<polygon class="st54" points="659.2,818.2 655.8,799.5 466.9,799.8 463.3,818.9 				"/>
				<polygon class="st55" points="659.2,818.4 655.8,799.8 466.9,800 463.3,819.2 				"/>
				<polygon class="st56" points="659.3,818.7 655.9,800 466.9,800.2 463.2,819.5 				"/>
				<polygon class="st57" points="659.3,819 655.9,800.2 466.8,800.5 463.2,819.7 				"/>
				<polygon class="st58" points="659.4,819.2 656,800.4 466.8,800.7 463.1,820 				"/>
				<polygon class="st59" points="659.4,819.5 656,800.6 466.7,800.9 463.1,820.3 				"/>
				<polygon class="st60" points="659.5,819.7 656,800.8 466.7,801.1 463,820.6 				"/>
				<polygon class="st61" points="659.5,820 656.1,801 466.6,801.3 463,820.9 				"/>
				<polygon class="st62" points="659.6,820.2 656.1,801.2 466.6,801.6 462.9,821.2 				"/>
				<polygon class="st13" points="659.6,820.5 656.2,801.4 466.5,801.8 462.9,821.5 				"/>
				<polygon class="st63" points="659.7,820.8 656.2,801.6 466.5,802 462.8,821.7 				"/>
				<polygon class="st64" points="659.7,821 656.2,801.8 466.5,802.2 462.8,822 				"/>
				<polygon class="st65" points="659.8,821.3 656.3,802 466.4,802.5 462.7,822.3 				"/>
				<polygon class="st17" points="659.8,821.5 656.3,802.3 466.4,802.7 462.6,822.6 				"/>
				<polygon class="st18" points="659.9,821.8 656.3,802.5 466.3,802.9 462.6,822.9 				"/>
				<polygon class="st66" points="659.9,822 656.4,802.7 466.3,803.1 462.5,823.2 				"/>
				<polygon class="st67" points="660,822.3 656.4,802.9 466.2,803.3 462.5,823.5 				"/>
				<polygon class="st68" points="660,822.5 656.5,803.1 466.2,803.6 462.4,823.7 				"/>
				<polygon class="st69" points="660,822.8 656.5,803.3 466.2,803.8 462.4,824 				"/>
				<polygon class="st70" points="660.1,823.1 656.5,803.5 466.1,804 462.3,824.3 				"/>
				<polygon class="st71" points="660.1,823.3 656.6,803.7 466.1,804.2 462.3,824.6 				"/>
				<polygon class="st72" points="660.2,823.6 656.6,803.9 466,804.5 462.2,824.9 				"/>
				<polygon class="st73" points="660.2,823.8 656.6,804.2 466,804.7 462.2,825.2 				"/>
				<polygon class="st28" points="660.3,824.1 656.7,804.3 466,804.9 462.1,825.4 				"/>
				<polygon class="st29" points="660.3,824.3 656.7,804.6 465.9,805.1 462.1,825.7 				"/>
				<polygon class="st30" points="660.4,824.6 656.8,804.8 465.9,805.3 462,826 				"/>
				<polygon class="st74" points="660.4,824.9 656.8,805 465.8,805.6 462,826.3 				"/>
				<polygon class="st75" points="660.5,825.1 656.8,805.2 465.8,805.8 461.9,826.6 				"/>
				<polygon class="st33" points="660.5,825.4 656.9,805.4 465.7,806 461.9,826.9 				"/>
				<polygon class="st34" points="660.6,825.6 656.9,805.6 465.7,806.2 461.8,827.2 				"/>
				<polygon id="XMLID_3589_" class="st35" points="660.6,825.9 657,805.8 465.6,806.5 461.8,827.4 				"/>
			</g>
			<g id="XMLID_3575_">
				<polygon id="XMLID_3582_" points="453.2,860.3 450.8,873.1 671.2,873.1 667.1,859.5 				"/>
				<polygon class="st36" points="453.2,860.1 450.8,873 671.2,873 667.1,859.4 				"/>
				<polygon class="st37" points="453.3,860 450.8,872.9 671.2,872.9 667.1,859.2 				"/>
				<polygon class="st38" points="453.3,859.8 450.8,872.8 671.2,872.8 667.1,859.1 				"/>
				<polygon class="st39" points="453.3,859.6 450.8,872.7 671.2,872.7 667.1,859 				"/>
				<polygon class="st40" points="453.4,859.5 450.9,872.7 671.1,872.6 667.1,858.8 				"/>
				<polygon class="st41" points="453.4,859.3 450.9,872.5 671.1,872.5 667.2,858.7 				"/>
				<polygon class="st42" points="453.4,859.1 450.9,872.5 671.1,872.3 667.2,858.5 				"/>
				<polygon class="st43" points="453.5,859 450.9,872.4 671.1,872.2 667.2,858.4 				"/>
				<polygon class="st44" points="453.5,858.8 450.9,872.2 671.1,872.1 667.2,858.2 				"/>
				<polygon class="st45" points="453.5,858.6 450.9,872.1 671,872 667.2,858.1 				"/>
				<polygon class="st46" points="453.6,858.4 451,872 671,871.8 667.2,857.9 				"/>
				<polygon class="st47" points="453.6,858.2 451,871.9 671,871.7 667.2,857.8 				"/>
				<polygon class="st48" points="453.6,858.1 451,871.8 671,871.6 667.2,857.6 				"/>
				<polygon class="st49" points="453.7,857.9 451,871.7 671,871.5 667.2,857.5 				"/>
				<polygon class="st50" points="453.7,857.7 451,871.6 670.9,871.4 667.2,857.3 				"/>
				<polygon class="st51" points="453.7,857.5 451,871.5 670.9,871.2 667.2,857.2 				"/>
				<polygon class="st52" points="453.8,857.4 451.1,871.4 670.9,871.1 667.2,857.1 				"/>
				<polygon class="st53" points="453.8,857.2 451.1,871.3 670.9,871 667.3,856.9 				"/>
				<polygon class="st54" points="453.8,857 451.1,871.2 670.9,870.9 667.3,856.8 				"/>
				<polygon class="st55" points="453.9,856.9 451.1,871.1 670.8,870.8 667.3,856.6 				"/>
				<polygon class="st56" points="453.9,856.7 451.1,871 670.8,870.7 667.3,856.5 				"/>
				<polygon class="st57" points="453.9,856.5 451.2,870.9 670.8,870.5 667.3,856.3 				"/>
				<polygon class="st58" points="454,856.3 451.2,870.8 670.8,870.4 667.3,856.2 				"/>
				<polygon class="st59" points="454,856.2 451.2,870.7 670.8,870.3 667.3,856 				"/>
				<polygon class="st60" points="454,856 451.2,870.6 670.7,870.2 667.3,855.9 				"/>
				<polygon class="st61" points="454,855.8 451.2,870.5 670.7,870.1 667.3,855.8 				"/>
				<polygon class="st62" points="454.1,855.7 451.2,870.4 670.7,869.9 667.3,855.6 				"/>
				<polygon class="st13" points="454.1,855.5 451.3,870.3 670.7,869.8 667.3,855.5 				"/>
				<polygon class="st63" points="454.1,855.3 451.3,870.2 670.7,869.7 667.3,855.3 				"/>
				<polygon class="st64" points="454.2,855.2 451.3,870.1 670.6,869.6 667.4,855.2 				"/>
				<polygon class="st65" points="454.2,855 451.3,870 670.6,869.5 667.4,855.1 				"/>
				<polygon class="st17" points="454.2,854.8 451.3,869.9 670.6,869.4 667.4,855 				"/>
				<polygon class="st18" points="454.3,854.7 451.4,869.8 670.6,869.3 667.4,854.8 				"/>
				<polygon class="st66" points="454.3,854.5 451.4,869.8 670.5,869.2 667.4,854.7 				"/>
				<polygon class="st67" points="454.3,854.4 451.4,869.7 670.5,869.1 667.4,854.6 				"/>
				<polygon class="st68" points="454.4,854.2 451.4,869.6 670.5,869 667.4,854.4 				"/>
				<polygon class="st69" points="454.4,854 451.4,869.5 670.5,868.9 667.4,854.3 				"/>
				<polygon class="st70" points="454.4,853.9 451.5,869.4 670.5,868.8 667.4,854.2 				"/>
				<polygon class="st71" points="454.5,853.7 451.5,869.3 670.5,868.7 667.4,854 				"/>
				<polygon class="st72" points="454.5,853.6 451.5,869.2 670.4,868.6 667.5,853.9 				"/>
				<polygon class="st73" points="454.5,853.4 451.5,869.1 670.4,868.5 667.5,853.8 				"/>
				<polygon class="st28" points="454.5,853.3 451.5,869.1 670.4,868.4 667.5,853.7 				"/>
				<polygon class="st29" points="454.6,853.2 451.5,869 670.4,868.3 667.5,853.6 				"/>
				<polygon class="st30" points="454.6,853 451.6,868.9 670.3,868.2 667.5,853.5 				"/>
				<polygon class="st74" points="454.6,852.8 451.6,868.8 670.3,868.1 667.5,853.3 				"/>
				<polygon class="st75" points="454.7,852.7 451.6,868.7 670.3,868 667.5,853.2 				"/>
				<polygon class="st33" points="454.7,852.5 451.6,868.6 670.3,867.9 667.5,853 				"/>
				<polygon class="st34" points="454.7,852.3 451.6,868.5 670.3,867.8 667.5,852.9 				"/>
				<polygon id="XMLID_3581_" class="st35" points="454.8,852.2 451.6,868.5 670.2,867.7 667.5,852.8 				"/>
			</g>
		</g>
		<g>
			<g>
				<path class="st76" d="M955.8,796.5H166.2c-4.2,0-7.5-3.4-7.5-7.5V322.2c0-4.2,3.4-7.5,7.5-7.5h789.5c4.2,0,7.5,3.4,7.5,7.5V789
					C963.3,793.1,959.9,796.5,955.8,796.5z"/>
				<path class="st77" d="M955.7,796.4H166.3c-4.2,0-7.5-3.4-7.5-7.5V322.3c0-4.2,3.4-7.5,7.5-7.5h789.3c4.2,0,7.5,3.4,7.5,7.5
					v466.5C963.2,793,959.8,796.4,955.7,796.4z"/>
				<path class="st78" d="M955.6,796.3H166.4c-4.2,0-7.5-3.4-7.5-7.5V322.4c0-4.2,3.4-7.5,7.5-7.5h789.1c4.2,0,7.5,3.4,7.5,7.5
					v466.4C963.1,792.9,959.7,796.3,955.6,796.3z"/>
				<path class="st79" d="M955.5,796.2H166.6c-4.1,0-7.5-3.4-7.5-7.5V322.5c0-4.1,3.4-7.5,7.5-7.5h788.9c4.2,0,7.5,3.4,7.5,7.5
					v466.2C963,792.9,959.6,796.2,955.5,796.2z"/>
				<path class="st80" d="M955.4,796.2H166.6c-4.1,0-7.5-3.4-7.5-7.5v-466c0-4.1,3.4-7.5,7.5-7.5h788.8c4.2,0,7.5,3.4,7.5,7.5v466
					C962.9,792.8,959.5,796.2,955.4,796.2z"/>
				<path class="st81" d="M955.3,796.1H166.8c-4.1,0-7.5-3.4-7.5-7.5V322.7c0-4.1,3.4-7.5,7.5-7.5h788.5c4.2,0,7.5,3.4,7.5,7.5
					v465.9C962.8,792.7,959.5,796.1,955.3,796.1z"/>
				<path class="st82" d="M955.2,796H166.9c-4.1,0-7.5-3.4-7.5-7.5V322.8c0-4.1,3.4-7.5,7.5-7.5h788.3c4.2,0,7.5,3.4,7.5,7.5v465.7
					C962.7,792.6,959.4,796,955.2,796z"/>
				<path class="st83" d="M955.1,795.9H167c-4.1,0-7.5-3.4-7.5-7.5V322.9c0-4.1,3.4-7.5,7.5-7.5h788.1c4.2,0,7.5,3.4,7.5,7.5v465.5
					C962.6,792.5,959.3,795.9,955.1,795.9z"/>
				<path class="st84" d="M955,795.8H167.1c-4.1,0-7.5-3.4-7.5-7.5V323c0-4.1,3.4-7.5,7.5-7.5H955c4.2,0,7.5,3.4,7.5,7.5v465.4
					C962.5,792.5,959.2,795.8,955,795.8z"/>
				<path class="st85" d="M954.9,795.7H167.2c-4.1,0-7.5-3.4-7.5-7.5V323c0-4.1,3.4-7.5,7.5-7.5h787.7c4.2,0,7.5,3.4,7.5,7.5v465.2
					C962.4,792.4,959.1,795.7,954.9,795.7z"/>
				<path class="st86" d="M954.8,795.7H167.3c-4.1,0-7.5-3.4-7.5-7.5v-465c0-4.1,3.4-7.5,7.5-7.5h787.5c4.1,0,7.5,3.4,7.5,7.5v465
					C962.3,792.3,959,795.7,954.8,795.7z"/>
				<path class="st87" d="M954.7,795.6H167.4c-4.1,0-7.5-3.4-7.5-7.5V323.2c0-4.1,3.4-7.5,7.5-7.5h787.3c4.1,0,7.5,3.4,7.5,7.5
					v464.9C962.2,792.2,958.9,795.6,954.7,795.6z"/>
				<path class="st88" d="M954.6,795.5H167.5c-4.1,0-7.5-3.4-7.5-7.5V323.3c0-4.1,3.4-7.5,7.5-7.5h787.1c4.1,0,7.5,3.4,7.5,7.5V788
					C962.1,792.1,958.8,795.5,954.6,795.5z"/>
				<path class="st89" d="M954.5,795.4H167.6c-4.1,0-7.5-3.4-7.5-7.5V323.4c0-4.1,3.4-7.5,7.5-7.5h786.9c4.1,0,7.5,3.4,7.5,7.5
					v464.5C962,792.1,958.7,795.4,954.5,795.4z"/>
				<path class="st90" d="M954.5,795.3H167.7c-4.1,0-7.5-3.4-7.5-7.5V323.5c0-4.1,3.4-7.5,7.5-7.5h786.7c4.1,0,7.5,3.4,7.5,7.5
					v464.3C962,792,958.6,795.3,954.5,795.3z"/>
				<path class="st91" d="M954.4,795.3H167.8c-4.1,0-7.5-3.3-7.5-7.5V323.6c0-4.1,3.4-7.5,7.5-7.5h786.5c4.1,0,7.5,3.4,7.5,7.5
					v464.2C961.8,791.9,958.5,795.3,954.4,795.3z"/>
				<path class="st92" d="M954.3,795.2H167.9c-4.1,0-7.5-3.3-7.5-7.5v-464c0-4.1,3.4-7.5,7.5-7.5h786.3c4.1,0,7.5,3.4,7.5,7.5v464
					C961.8,791.8,958.4,795.2,954.3,795.2z"/>
				<path class="st93" d="M954.2,795.1H168c-4.1,0-7.5-3.3-7.5-7.5V323.8c0-4.1,3.4-7.5,7.5-7.5h786.1c4.1,0,7.5,3.4,7.5,7.5v463.8
					C961.7,791.7,958.3,795.1,954.2,795.1z"/>
				<path class="st94" d="M954.1,795h-786c-4.1,0-7.5-3.3-7.5-7.5V323.9c0-4.1,3.4-7.5,7.5-7.5H954c4.1,0,7.5,3.4,7.5,7.5v463.7
					C961.6,791.7,958.2,795,954.1,795z"/>
				<path class="st95" d="M954,794.9H168.2c-4.1,0-7.5-3.3-7.5-7.5V324c0-4.1,3.4-7.5,7.5-7.5H954c4.1,0,7.5,3.4,7.5,7.5v463.5
					C961.5,791.6,958.1,794.9,954,794.9z"/>
				<path class="st96" d="M953.9,794.8H168.4c-4.1,0-7.5-3.3-7.5-7.5V324c0-4.1,3.4-7.5,7.5-7.5h785.5c4.1,0,7.5,3.4,7.5,7.5v463.3
					C961.4,791.5,958,794.8,953.9,794.8z"/>
				<path class="st97" d="M953.8,794.8H168.5c-4.1,0-7.5-3.3-7.5-7.5V324.1c0-4.1,3.4-7.5,7.5-7.5h785.3c4.1,0,7.5,3.4,7.5,7.5
					v463.2C961.3,791.4,957.9,794.8,953.8,794.8z"/>
				<path class="st98" d="M953.7,794.7H168.6c-4.1,0-7.5-3.3-7.5-7.5v-463c0-4.1,3.4-7.5,7.5-7.5h785.1c4.1,0,7.5,3.4,7.5,7.5v463
					C961.2,791.3,957.8,794.7,953.7,794.7z"/>
				<path class="st99" d="M953.6,794.6H168.7c-4.1,0-7.5-3.3-7.5-7.5V324.3c0-4.1,3.4-7.5,7.5-7.5h784.9c4.1,0,7.5,3.4,7.5,7.5
					v462.8C961.1,791.3,957.7,794.6,953.6,794.6z"/>
				<path class="st100" d="M953.5,794.5H168.8c-4.1,0-7.5-3.3-7.5-7.5V324.4c0-4.1,3.4-7.5,7.5-7.5h784.7c4.1,0,7.5,3.4,7.5,7.5V787
					C961,791.2,957.6,794.5,953.5,794.5z"/>
				<path class="st101" d="M953.4,794.5H168.9c-4.1,0-7.5-3.3-7.5-7.5V324.5c0-4.1,3.3-7.5,7.5-7.5h784.5c4.1,0,7.5,3.3,7.5,7.5V787
					C960.9,791.1,957.5,794.5,953.4,794.5z"/>
				<path class="st101" d="M953.3,794.4H169c-4.1,0-7.5-3.3-7.5-7.5V324.6c0-4.1,3.3-7.5,7.5-7.5h784.3c4.1,0,7.5,3.3,7.5,7.5v462.3
					C960.8,791,957.5,794.4,953.3,794.4z"/>
				<path class="st102" d="M953.2,794.3H169.1c-4.1,0-7.5-3.3-7.5-7.5V324.7c0-4.1,3.3-7.5,7.5-7.5h784.1c4.1,0,7.5,3.3,7.5,7.5
					v462.1C960.7,790.9,957.3,794.3,953.2,794.3z"/>
				<path class="st103" d="M953.1,794.2H169.2c-4.1,0-7.5-3.3-7.5-7.5v-462c0-4.1,3.3-7.5,7.5-7.5h783.9c4.1,0,7.5,3.3,7.5,7.5v462
					C960.6,790.9,957.3,794.2,953.1,794.2z"/>
				<path class="st104" d="M953,794.1H169.3c-4.1,0-7.5-3.3-7.5-7.5V324.9c0-4.1,3.3-7.5,7.5-7.5H953c4.1,0,7.5,3.3,7.5,7.5v461.8
					C960.5,790.8,957.2,794.1,953,794.1z"/>
				<path class="st105" d="M953,794H169.4c-4.1,0-7.5-3.3-7.5-7.5V325c0-4.1,3.3-7.5,7.5-7.5h783.5c4.1,0,7.5,3.3,7.5,7.5v461.6
					C960.4,790.7,957.1,794,953,794z"/>
				<path class="st106" d="M952.8,794H169.5c-4.1,0-7.5-3.3-7.5-7.5V325c0-4.1,3.3-7.5,7.5-7.5h783.3c4.1,0,7.5,3.3,7.5,7.5v461.5
					C960.3,790.6,957,794,952.8,794z"/>
				<path class="st107" d="M952.8,793.9H169.6c-4.1,0-7.4-3.3-7.4-7.5V325.1c0-4.1,3.3-7.5,7.4-7.5h783.1c4.1,0,7.5,3.3,7.5,7.5
					v461.3C960.2,790.5,956.9,793.9,952.8,793.9z"/>
				<path class="st5" d="M952.7,793.8h-783c-4.1,0-7.4-3.3-7.4-7.5V325.2c0-4.1,3.3-7.5,7.4-7.5h782.9c4.1,0,7.5,3.3,7.5,7.5v461.1
					C960.1,790.5,956.8,793.8,952.7,793.8z"/>
				<path class="st4" d="M952.6,793.7H169.8c-4.1,0-7.4-3.3-7.4-7.5v-461c0-4.1,3.3-7.5,7.4-7.5h782.7c4.1,0,7.5,3.3,7.5,7.5v461
					C960,790.4,956.7,793.7,952.6,793.7z"/>
				<path class="st3" d="M952.5,793.6H169.9c-4.1,0-7.4-3.3-7.4-7.5V325.4c0-4.1,3.3-7.5,7.4-7.5h782.5c4.1,0,7.5,3.3,7.5,7.5v460.8
					C959.9,790.3,956.6,793.6,952.5,793.6z"/>
				<path class="st108" d="M952.4,793.5H170.1c-4.1,0-7.4-3.3-7.4-7.4V325.5c0-4.1,3.3-7.4,7.4-7.4h782.3c4.1,0,7.4,3.3,7.4,7.4
					v460.6C959.8,790.2,956.5,793.5,952.4,793.5z"/>
				<path class="st109" d="M952.3,793.5H170.1c-4.1,0-7.4-3.3-7.4-7.4V325.6c0-4.1,3.3-7.4,7.4-7.4h782.1c4.1,0,7.4,3.3,7.4,7.4V786
					C959.7,790.1,956.4,793.5,952.3,793.5z"/>
				<path class="st110" d="M952.2,793.4H170.3c-4.1,0-7.4-3.3-7.4-7.4V325.7c0-4.1,3.3-7.4,7.4-7.4h781.9c4.1,0,7.4,3.3,7.4,7.4V786
					C959.6,790.1,956.3,793.4,952.2,793.4z"/>
				<path class="st111" d="M952.1,793.3H170.4c-4.1,0-7.4-3.3-7.4-7.4V325.8c0-4.1,3.3-7.4,7.4-7.4h781.7c4.1,0,7.4,3.3,7.4,7.4
					v460.1C959.5,790,956.2,793.3,952.1,793.3z"/>
				<path class="st112" d="M952,793.2H170.5c-4.1,0-7.4-3.3-7.4-7.4V325.9c0-4.1,3.3-7.4,7.4-7.4H952c4.1,0,7.4,3.3,7.4,7.4v459.9
					C959.4,789.9,956.1,793.2,952,793.2z"/>
				<path class="st113" d="M951.9,793.2H170.6c-4.1,0-7.4-3.3-7.4-7.4V325.9c0-4.1,3.3-7.4,7.4-7.4h781.3c4.1,0,7.4,3.3,7.4,7.4
					v459.8C959.3,789.8,956,793.2,951.9,793.2z"/>
				<path class="st114" d="M951.8,793.1H170.7c-4.1,0-7.4-3.3-7.4-7.4V326c0-4.1,3.3-7.4,7.4-7.4h781.1c4.1,0,7.4,3.3,7.4,7.4v459.6
					C959.2,789.7,955.9,793.1,951.8,793.1z"/>
				<path class="st115" d="M951.7,793H170.8c-4.1,0-7.4-3.3-7.4-7.4V326.1c0-4.1,3.3-7.4,7.4-7.4h780.9c4.1,0,7.4,3.3,7.4,7.4v459.4
					C959.2,789.7,955.8,793,951.7,793z"/>
				<path class="st116" d="M951.6,792.9H170.9c-4.1,0-7.4-3.3-7.4-7.4V326.2c0-4.1,3.3-7.4,7.4-7.4h780.7c4.1,0,7.4,3.3,7.4,7.4
					v459.3C959,789.6,955.7,792.9,951.6,792.9z"/>
				<path class="st117" d="M951.5,792.8H171c-4.1,0-7.4-3.3-7.4-7.4V326.3c0-4.1,3.3-7.4,7.4-7.4h780.5c4.1,0,7.4,3.3,7.4,7.4v459.1
					C959,789.5,955.6,792.8,951.5,792.8z"/>
				<path class="st118" d="M951.4,792.7H171.1c-4.1,0-7.4-3.3-7.4-7.4V326.4c0-4.1,3.3-7.4,7.4-7.4h780.3c4.1,0,7.4,3.3,7.4,7.4
					v458.9C958.9,789.4,955.5,792.7,951.4,792.7z"/>
				<path class="st119" d="M951.3,792.7H171.2c-4.1,0-7.4-3.3-7.4-7.4V326.5c0-4.1,3.3-7.4,7.4-7.4h780.1c4.1,0,7.4,3.3,7.4,7.4
					v458.8C958.8,789.3,955.4,792.7,951.3,792.7z"/>
				<path class="st39" d="M951.2,792.6H171.3c-4.1,0-7.4-3.3-7.4-7.4V326.6c0-4.1,3.3-7.4,7.4-7.4h779.9c4.1,0,7.4,3.3,7.4,7.4
					v458.6C958.7,789.3,955.3,792.6,951.2,792.6z"/>
				<path class="st38" d="M951.2,792.5H171.4c-4.1,0-7.4-3.3-7.4-7.4V326.7c0-4.1,3.3-7.4,7.4-7.4h779.7c4.1,0,7.4,3.3,7.4,7.4
					v458.4C958.6,789.2,955.2,792.5,951.2,792.5z"/>
				<path class="st37" d="M951.1,792.4H171.5c-4.1,0-7.4-3.3-7.4-7.4V326.8c0-4.1,3.3-7.4,7.4-7.4H951c4.1,0,7.4,3.3,7.4,7.4V785
					C958.5,789.1,955.2,792.4,951.1,792.4z"/>
				<path class="st36" d="M951,792.3H171.6c-4.1,0-7.4-3.3-7.4-7.4v-458c0-4.1,3.3-7.4,7.4-7.4H951c4.1,0,7.4,3.3,7.4,7.4V785
					C958.4,789,955.1,792.3,951,792.3z"/>
			</g>
			<rect x="178.1" y="333" class="st120" width="766.4" height="445.1"/>
			<polygon class="st121" points="182.3,772 182.3,333 178.1,333 178.1,778.2 944.5,778.2 944.5,772 			"/>
		</g>
	</g>
</g>
<image style="overflow:visible;" width="1899" height="948" xlink:href="mocon1.JPG"  transform="matrix(0.4036 0 0 0.4696 178.1 333.02)">
</image>
</svg>
